<?xml version="1.0" encoding="UTF-8"?>
<svg id="Layer_2" data-name="Layer 2" xmlns="http://www.w3.org/2000/svg" xmlns:xlink="http://www.w3.org/1999/xlink" viewBox="0 0 37.51 41.28">
  <defs>
    <style>
      .cls-1 {
        fill: url(#linear-gradient-7);
      }

      .cls-2 {
        fill: url(#linear-gradient-5);
      }

      .cls-3 {
        fill: url(#linear-gradient-6);
      }

      .cls-4 {
        fill: url(#linear-gradient-4);
      }

      .cls-5 {
        fill: url(#linear-gradient-3);
      }

      .cls-6 {
        fill: url(#linear-gradient-2);
      }

      .cls-7 {
        fill: url(#linear-gradient);
      }

      .cls-8 {
        fill: #fff;
      }

      .cls-9 {
        clip-path: url(#clippath);
      }
    </style>
    <linearGradient id="linear-gradient" x1="0" y1="20.64" x2="37.51" y2="20.64" gradientUnits="userSpaceOnUse">
      <stop offset="0" stop-color="#004dfc"/>
      <stop offset="1" stop-color="#000"/>
    </linearGradient>
    <clipPath id="clippath">
      <path class="cls-7" d="M18.75,0s3.13.63,9.91,2.38c6.41,1.65,8.66,2.31,8.66,2.31,0,0,1.06,6.47-1.85,18.43-2.35,9.65-10.04,15.86-16.72,18.16-6.67-2.3-14.37-8.5-16.72-18.16C-.87,11.17.19,4.69.19,4.69c0,0,2.25-.66,8.66-2.31C15.63.63,18.75,0,18.75,0Z"/>
    </clipPath>
    <linearGradient id="linear-gradient-2" x1="13.37" y1="13.88" x2="27.93" y2="13.88" xlink:href="#linear-gradient"/>
    <linearGradient id="linear-gradient-3" x1="14.3" y1="16.63" x2="33.33" y2="16.63" xlink:href="#linear-gradient"/>
    <linearGradient id="linear-gradient-4" x1="16.63" y1="24.49" x2="29.35" y2="24.49" xlink:href="#linear-gradient"/>
    <linearGradient id="linear-gradient-5" x1="19.83" y1="26.94" x2="33.33" y2="26.94" xlink:href="#linear-gradient"/>
    <linearGradient id="linear-gradient-6" x1="24.21" y1="29.63" x2="35.16" y2="29.63" xlink:href="#linear-gradient"/>
    <linearGradient id="linear-gradient-7" x1="30.5" y1="32.27" x2="35.16" y2="32.27" xlink:href="#linear-gradient"/>
  </defs>
  <g id="Layer_1-2" data-name="Layer 1">
    <g>
      <path class="cls-7" d="M18.75,0s3.13.63,9.91,2.38c6.41,1.65,8.66,2.31,8.66,2.31,0,0,1.06,6.47-1.85,18.43-2.35,9.65-10.04,15.86-16.72,18.16-6.67-2.3-14.37-8.5-16.72-18.16C-.87,11.17.19,4.69.19,4.69c0,0,2.25-.66,8.66-2.31C15.63.63,18.75,0,18.75,0Z"/>
      <g class="cls-9">
        <g>
          <g>
            <line class="cls-6" x1="13.37" y1="22.87" x2="27.93" y2="4.88"/>
            <path class="cls-8" d="M14.22,23.72c.48-.6.97-1.2,1.45-1.79l3.47-4.29,4.2-5.19,3.64-4.5c.59-.73,1.18-1.45,1.76-2.18,0-.01.02-.02.02-.03.21-.26.35-.51.35-.85,0-.29-.13-.65-.35-.85-.44-.4-1.28-.52-1.7,0-.48.6-.97,1.2-1.45,1.79l-3.47,4.29-4.2,5.19-3.64,4.5c-.59.73-1.18,1.45-1.76,2.18,0,.01-.02.02-.02.03-.21.26-.35.51-.35.85,0,.29.13.65.35.85.44.4,1.28.52,1.7,0h0Z"/>
          </g>
          <g>
            <line class="cls-5" x1="14.3" y1="28.38" x2="33.33" y2="4.88"/>
            <path class="cls-8" d="M15.15,29.23c.63-.78,1.27-1.56,1.9-2.35l4.54-5.61,5.49-6.78,4.76-5.88c.77-.95,1.54-1.89,2.3-2.85.01-.01.02-.03.03-.04.39-.49.51-1.23,0-1.7-.44-.4-1.28-.52-1.7,0-.63.78-1.27,1.56-1.9,2.35l-4.54,5.61-5.49,6.78-4.76,5.88c-.77.95-1.54,1.89-2.3,2.85-.01.01-.02.03-.03.04-.39.49-.51,1.23,0,1.7.44.4,1.28.52,1.7,0h0Z"/>
          </g>
          <g>
            <line class="cls-4" x1="16.63" y1="32.35" x2="29.35" y2="16.63"/>
            <path class="cls-8" d="M17.48,33.2c.42-.52.85-1.05,1.27-1.57l3.04-3.75,3.67-4.53,3.18-3.93c.51-.63,1.03-1.27,1.54-1.9,0,0,.01-.02.02-.03.21-.26.35-.51.35-.85,0-.29-.13-.65-.35-.85-.44-.4-1.28-.52-1.7,0s-.85,1.05-1.27,1.57l-3.04,3.75-3.67,4.53-3.18,3.93c-.51.63-1.03,1.27-1.54,1.9,0,0-.01.02-.02.03-.21.26-.35.51-.35.85,0,.29.13.65.35.85.44.4,1.28.52,1.7,0h0Z"/>
          </g>
          <g>
            <line class="cls-2" x1="19.83" y1="35.28" x2="33.33" y2="18.61"/>
            <path class="cls-8" d="M20.68,36.13c.45-.55.9-1.11,1.35-1.66l3.22-3.98,3.89-4.81,3.38-4.17c.54-.67,1.09-1.34,1.63-2.02,0,0,.02-.02.02-.03.21-.26.35-.51.35-.85,0-.29-.13-.65-.35-.85-.44-.4-1.28-.52-1.7,0-.45.55-.9,1.11-1.35,1.66l-3.22,3.98-3.89,4.81-3.38,4.17c-.54.67-1.09,1.34-1.63,2.02,0,0-.02.02-.02.03-.21.26-.35.51-.35.85,0,.29.13.65.35.85.44.4,1.28.52,1.7,0h0Z"/>
          </g>
          <g>
            <line class="cls-3" x1="24.21" y1="36.4" x2="35.16" y2="22.87"/>
            <path class="cls-8" d="M25.05,37.25l1.09-1.35,2.61-3.23,3.16-3.9,2.74-3.39c.44-.55.89-1.09,1.33-1.64,0,0,.01-.02.02-.02.21-.26.35-.51.35-.85,0-.29-.13-.65-.35-.85s-.53-.37-.85-.35c-.3.01-.65.11-.85.35l-1.09,1.35-2.61,3.23-3.16,3.9-2.74,3.39c-.44.55-.89,1.09-1.33,1.64,0,0-.01.02-.02.02-.21.26-.35.51-.35.85,0,.29.13.65.35.85s.53.37.85.35c.3-.01.65-.11.85-.35h0Z"/>
          </g>
          <g>
            <line class="cls-1" x1="30.5" y1="35.15" x2="35.16" y2="29.39"/>
            <path class="cls-8" d="M31.35,36c.16-.19.31-.38.47-.57l1.11-1.37,1.34-1.66,1.17-1.44c.19-.23.38-.46.56-.7,0,0,0,0,0,0,.12-.11.2-.24.25-.39.08-.14.11-.3.1-.46,0-.17-.03-.32-.1-.46-.05-.15-.13-.28-.25-.39-.23-.21-.53-.37-.85-.35l-.32.04c-.2.06-.38.16-.53.31-.16.19-.31.38-.47.57l-1.11,1.37-1.34,1.66-1.17,1.44c-.19.23-.38.46-.56.7,0,0,0,0,0,0-.12.11-.2.24-.25.39-.08.14-.11.3-.1.46,0,.17.03.32.1.46.05.15.13.28.25.39.23.21.53.37.85.35l.32-.04c.2-.06.38-.16.53-.31h0Z"/>
          </g>
        </g>
      </g>
    </g>
  </g>
</svg>